<svg width="507" height="507" viewBox="0 0 507 507" fill="none" xmlns="http://www.w3.org/2000/svg">
<rect width="507" height="507" rx="120" fill="#006FC0"/>
<path d="M101.248 405V189.321H161.102V405H101.248ZM131.316 161.519C122.417 161.519 114.783 158.57 108.414 152.673C102.138 146.682 99 139.521 99 131.189C99 122.952 102.138 115.884 108.414 109.987C114.783 103.996 122.417 101 131.316 101C140.214 101 147.801 103.996 154.077 109.987C160.446 115.884 163.631 122.952 163.631 131.189C163.631 139.521 160.446 146.682 154.077 152.673C147.801 158.57 140.214 161.519 131.316 161.519Z" fill="white"/>
<path d="M268.903 280.311V405H209.049V189.321H266.093V227.374H268.622C273.399 214.83 281.407 204.908 292.647 197.606C303.888 190.211 317.516 186.513 333.534 186.513C348.521 186.513 361.587 189.79 372.734 196.342C383.88 202.895 392.545 212.256 398.727 224.425C404.909 236.501 408 250.917 408 267.673V405H348.146V278.345C348.24 265.146 344.868 254.849 338.03 247.454C331.192 239.965 321.778 236.22 309.789 236.22C301.733 236.22 294.615 237.952 288.432 241.416C282.344 244.879 277.567 249.934 274.101 256.581C270.729 263.133 268.996 271.043 268.903 280.311Z" fill="white"/>
</svg>
