<svg width="507" height="507" viewBox="0 0 507 507" fill="none" xmlns="http://www.w3.org/2000/svg">
<rect width="507" height="507" rx="120" fill="white"/>
<path d="M61 156.057C61 105.215 102.215 64 153.057 64H248.524V154.353C248.524 206.136 205.685 248.115 153.902 248.115C103.06 248.115 61 206.899 61 156.057Z" fill="#FFB800"/>
<path d="M258.753 157.762C258.753 105.979 301.592 64 353.375 64C404.217 64 446.277 105.215 446.277 156.057C446.277 206.899 405.062 248.115 354.22 248.115H258.753V157.762Z" fill="black"/>
<path d="M258.753 350.401C258.753 299.559 299.968 258.343 350.81 258.343H354.22C405.061 258.343 446.277 299.559 446.277 350.401C446.277 401.242 405.061 442.458 354.22 442.458H350.81C299.968 442.458 258.753 401.242 258.753 350.401Z" fill="#006FC0"/>
<path d="M207.312 259.885C220.839 287.001 209.668 319.872 182.361 333.304L102.88 372.4C89.3535 345.284 100.525 312.413 127.832 298.981L207.312 259.885Z" fill="#FFB800"/>
<path d="M207.312 328.076C220.839 356.013 209.668 389.88 182.361 403.719L102.88 444C89.3535 416.062 100.525 382.195 127.832 368.356L207.312 328.076Z" fill="#FFB800"/>
<path d="M333.373 309.486L387.748 362.65C388.941 363.817 388.125 365.861 386.466 365.861H353.669L333.625 390.626C332.504 392.011 330.287 391.161 330.354 389.372L333.373 309.486Z" fill="white"/>
<path d="M323.534 161.172C323.534 156.464 327.35 152.648 332.058 152.648H362.743C367.451 152.648 371.267 156.464 371.267 161.172C371.267 165.879 367.451 169.695 362.743 169.695H332.058C327.35 169.695 323.534 165.879 323.534 161.172Z" fill="white"/>
<path d="M303.077 137.305C303.077 132.597 306.893 128.781 311.6 128.781H396.839C401.546 128.781 405.363 132.597 405.363 137.305C405.363 142.012 401.546 145.829 396.839 145.829H311.6C306.893 145.829 303.077 142.012 303.077 137.305Z" fill="white"/>
<path d="M309.896 156.057C309.896 154.174 311.422 152.648 313.305 152.648C315.188 152.648 316.715 154.174 316.715 156.057V190.153C316.715 192.036 315.188 193.562 313.305 193.562C311.422 193.562 309.896 192.036 309.896 190.153V156.057Z" fill="white"/>
<path d="M323.534 185.038C323.534 180.331 327.35 176.514 332.058 176.514H396.839C401.546 176.514 405.363 180.331 405.363 185.038C405.363 189.746 401.546 193.562 396.839 193.562H332.058C327.35 193.562 323.534 189.746 323.534 185.038Z" fill="white"/>
</svg>
